<?xml version="1.0" ?><svg height="32" id="icon" viewBox="0 0 32 32" width="32" xmlns="http://www.w3.org/2000/svg"><defs><style>.cls-1{fill:none;}</style></defs><title/><rect height="2" width="2" x="2" y="26"/><rect height="2" width="2" x="4" y="28"/><rect height="2" width="2" x="6" y="30"/><rect height="2" width="2" x="6" y="26"/><rect height="2" width="2" x="2" y="30"/><rect height="2" width="2" x="20" y="26"/><rect height="2" width="2" x="22" y="28"/><rect height="2" width="2" x="24" y="30"/><rect height="2" width="2" x="24" y="26"/><rect height="2" width="2" x="20" y="30"/><rect height="2" width="2" x="11" y="26"/><rect height="2" width="2" x="13" y="28"/><rect height="2" width="2" x="15" y="30"/><rect height="2" width="2" x="15" y="26"/><rect height="2" width="2" x="11" y="30"/><rect height="3" width="2" x="20"/><rect height="2" width="3" x="29" y="10.0007"/><rect height="2" transform="translate(4.8972 21.3598) rotate(-45)" width="3" x="26.7322" y="3.7684"/><rect height="2" transform="translate(36.0099 49.3816) rotate(-135)" width="3" x="26.7322" y="16.2329"/><rect height="2" transform="translate(20.1312 17.8755) rotate(-135)" width="3" x="12.2678" y="3.7684"/><path d="M27,11A5.9852,5.9852,0,0,0,16.1431,7.5083,7.3737,7.3737,0,0,0,13.5,7a7.5511,7.5511,0,0,0-7.1494,5.2441A5.9926,5.9926,0,0,0,8,24H19a5.9672,5.9672,0,0,0,5.5667-8.2A5.9722,5.9722,0,0,0,27,11ZM19,22H8a3.9926,3.9926,0,0,1-.6733-7.9292l.663-.1128.1456-.6562a5.496,5.496,0,0,1,10.7294,0l.1456.6562.6626.1128A3.9925,3.9925,0,0,1,19,22Zm4.5222-7.9131a5.9592,5.9592,0,0,0-2.8728-1.8428,7.5212,7.5212,0,0,0-2.7224-3.78,3.9869,3.9869,0,1,1,5.5952,5.6225Z"/><rect class="cls-1" data-name="&lt;Transparent Rectangle&gt;" height="32" id="_Transparent_Rectangle_" width="32"/></svg>